# xmcd
#
# Track frame offsets:
#       150
#       15796
#       31899
#       44529
#       62013
#       79036
#       100974
#       117484
#       133801
#       149061
#       163414
#       175316
#       187541
#       218136
#
# Disc length: 4440 seconds
#
# Revision: 0
# Processed by: cddbd v1.5.1PL0 Copyright (c) Steve Scherf et al.
# Submitted via: WhereIsIt 3.26
#
DISCID=c211560e
DTITLE=Marie Rottrova - Podivej
DYEAR=1900
DGENRE=
TTITLE0=Lakoma
TTITLE1=Podivej se do me
TTITLE2=Prstynek
TTITLE3=Bud mou nadeji
TTITLE4=Nespi a vstan
TTITLE5=Kdyz je mi nejhure
TTITLE6=Za sebou
TTITLE7=Tak tohle je laska
TTITLE8=Muz a pes
TTITLE9=Divka, ktera spi jen tak
TTITLE10=Dnes uz vim
TTITLE11=Tak to jest
TTITLE12=Most vzpominani
TTITLE13=
EXTD=
EXTT0=
EXTT1=
EXTT2=
EXTT3=
EXTT4=
EXTT5=
EXTT6=
EXTT7=
EXTT8=
EXTT9=
EXTT10=
EXTT11=
EXTT12=
EXTT13=
PLAYORDER=
